<?xml version="1.0" encoding="UTF-8"?>
<!DOCTYPE svg PUBLIC "-//W3C//DTD SVG 1.1//EN" "http://www.w3.org/Graphics/SVG/1.1/DTD/svg11.dtd">
<svg xmlns="http://www.w3.org/2000/svg" version="1.1" width="32px" height="32px" style="shape-rendering:geometricPrecision; text-rendering:geometricPrecision; image-rendering:optimizeQuality; fill-rule:evenodd; clip-rule:evenodd" xmlns:xlink="http://www.w3.org/1999/xlink">
<g><path style="opacity:0.931" fill="#73b530" d="M 13.5,-0.5 C 14.8333,-0.5 16.1667,-0.5 17.5,-0.5C 19.8061,1.13942 21.8061,3.13942 23.5,5.5C 22.8902,6.39105 22.5569,7.39105 22.5,8.5C 21.2921,7.76589 19.9587,7.43255 18.5,7.5C 17.1979,5.9724 15.5313,4.9724 13.5,4.5C 18.8333,4.16667 18.8333,3.83333 13.5,3.5C 12.1667,3.5 11.5,2.83333 11.5,1.5C 12.1667,0.833333 12.8333,0.166667 13.5,-0.5 Z"/></g>
<g><path style="opacity:0.691" fill="#75b732" d="M 11.5,1.5 C 11.5,2.83333 12.1667,3.5 13.5,3.5C 13.5,3.83333 13.5,4.16667 13.5,4.5C 15.5313,4.9724 17.1979,5.9724 18.5,7.5C 5.16667,8.16667 5.16667,8.83333 18.5,9.5C 15.6946,10.3195 12.6946,10.8195 9.5,11C 10.056,11.3826 10.3893,11.8826 10.5,12.5C 8.31963,11.1448 6.31963,11.3115 4.5,13C 10.8445,14.6935 17.1778,14.8602 23.5,13.5C 25.7007,14.9451 27.8673,16.6118 30,18.5C 30.4935,16.8659 30.6602,15.1992 30.5,13.5C 30.8333,13.5 31.1667,13.5 31.5,13.5C 31.5,15.5 31.5,17.5 31.5,19.5C 28.7276,19.22 26.2276,19.8866 24,21.5C 23.7613,20.212 24.2613,19.212 25.5,18.5C 25.9175,17.7784 26.5842,17.2784 27.5,17C 23.3581,16.9419 19.1915,17.1086 15,17.5C 10.8265,17.6257 6.82651,16.9591 3,15.5C 2.40921,16.4835 2.74254,17.1501 4,17.5C 6.34615,17.9902 8.51282,18.6568 10.5,19.5C 8.80081,19.3398 7.13414,19.5065 5.5,20C 5.83333,20.3333 6.16667,20.6667 6.5,21C 4.34743,21.0995 2.68076,21.9328 1.5,23.5C 0.833333,23.1667 0.166667,22.8333 -0.5,22.5C -0.5,20.1667 -0.5,17.8333 -0.5,15.5C 0.833333,15.1667 0.833333,14.8333 -0.5,14.5C -0.5,14.1667 -0.5,13.8333 -0.5,13.5C 2.47253,8.52745 6.47253,4.52745 11.5,1.5 Z M 25.5,18.5 C 22.4552,18.5079 19.4552,18.8413 16.5,19.5C 14.5,19.5 12.5,19.5 10.5,19.5C 8.51282,18.6568 6.34615,17.9902 4,17.5C 2.74254,17.1501 2.40921,16.4835 3,15.5C 6.82651,16.9591 10.8265,17.6257 15,17.5C 19.1915,17.1086 23.3581,16.9419 27.5,17C 26.5842,17.2784 25.9175,17.7784 25.5,18.5 Z"/></g>
<g><path style="opacity:0.546" fill="#73b72f" d="M 23.5,5.5 C 24.4916,5.32842 25.1583,5.66175 25.5,6.5C 24.7586,8.4422 24.7586,10.1089 25.5,11.5C 20.547,12.3292 15.547,12.6625 10.5,12.5C 10.3893,11.8826 10.056,11.3826 9.5,11C 12.6946,10.8195 15.6946,10.3195 18.5,9.5C 20.099,9.76781 21.4324,9.43448 22.5,8.5C 22.5569,7.39105 22.8902,6.39105 23.5,5.5 Z"/></g>
<g><path style="opacity:0.749" fill="#72b22f" d="M 25.5,6.5 C 27.8901,8.26658 29.5568,10.5999 30.5,13.5C 30.6602,15.1992 30.4935,16.8659 30,18.5C 27.8673,16.6118 25.7007,14.9451 23.5,13.5C 25.9935,13.8693 26.6602,13.2027 25.5,11.5C 24.7586,10.1089 24.7586,8.4422 25.5,6.5 Z"/></g>
<g><path style="opacity:0.723" fill="#7dbb3b" d="M 25.5,18.5 C 24.2613,19.212 23.7613,20.212 24,21.5C 26.2276,19.8866 28.7276,19.22 31.5,19.5C 31.5,20.1667 31.5,20.8333 31.5,21.5C 28.4906,25.7672 24.324,28.4338 19,29.5C 17.9701,29.8361 17.4701,30.5028 17.5,31.5C 16.5,31.5 15.5,31.5 14.5,31.5C 14.5,30.8333 14.5,30.1667 14.5,29.5C 14.5394,28.4168 14.8728,27.4168 15.5,26.5C 14.9747,25.8076 14.3081,25.3076 13.5,25C 14.7932,24.51 16.1266,24.3433 17.5,24.5C 16.1498,25.6499 16.3164,26.3166 18,26.5C 20.3461,26.0098 22.5128,25.3432 24.5,24.5C 24.9382,24.5654 25.2716,24.3988 25.5,24C 23.9194,23.2935 22.4194,22.4601 21,21.5C 17.3987,22.8198 13.8987,22.8198 10.5,21.5C 13.1873,21.6641 15.854,21.4974 18.5,21C 17.5842,20.7216 16.9175,20.2216 16.5,19.5C 19.4552,18.8413 22.4552,18.5079 25.5,18.5 Z M 17.5,24.5 C 19.8333,24.5 22.1667,24.5 24.5,24.5C 22.5128,25.3432 20.3461,26.0098 18,26.5C 16.3164,26.3166 16.1498,25.6499 17.5,24.5 Z"/></g>
<g><path style="opacity:0.734" fill="#72b62d" d="M 10.5,19.5 C 12.5,19.5 14.5,19.5 16.5,19.5C 16.9175,20.2216 17.5842,20.7216 18.5,21C 15.854,21.4974 13.1873,21.6641 10.5,21.5C 9.22086,22.968 7.5542,23.6347 5.5,23.5C 5.5,24.5 5.5,25.5 5.5,26.5C 3.59565,26.2624 2.26231,25.2624 1.5,23.5C 2.68076,21.9328 4.34743,21.0995 6.5,21C 6.16667,20.6667 5.83333,20.3333 5.5,20C 7.13414,19.5065 8.80081,19.3398 10.5,19.5 Z"/></g>
<g><path style="opacity:0.775" fill="#72b62e" d="M 10.5,21.5 C 13.8987,22.8198 17.3987,22.8198 21,21.5C 22.4194,22.4601 23.9194,23.2935 25.5,24C 25.2716,24.3988 24.9382,24.5654 24.5,24.5C 22.1667,24.5 19.8333,24.5 17.5,24.5C 16.1266,24.3433 14.7932,24.51 13.5,25C 14.3081,25.3076 14.9747,25.8076 15.5,26.5C 14.8728,27.4168 14.5394,28.4168 14.5,29.5C 11.0836,29.4725 8.08358,28.4725 5.5,26.5C 5.5,25.5 5.5,24.5 5.5,23.5C 7.5542,23.6347 9.22086,22.968 10.5,21.5 Z"/></g>
</svg>
